<svg class="main-svg" xmlns="http://www.w3.org/2000/svg" xmlns:xlink="http://www.w3.org/1999/xlink" width="648.15" height="279" style="" viewBox="0 0 648.15 279"><rect x="0" y="0" width="648.15" height="279" style="fill: rgb(238, 238, 238); fill-opacity: 1;"/><defs id="defs-e0facd"><g class="clips"><clipPath id="clipe0facdxyplot" class="plotclip"><rect width="475" height="172"/></clipPath><clipPath class="axesclip" id="clipe0facdx"><rect x="37" y="0" width="475" height="279"/></clipPath><clipPath class="axesclip" id="clipe0facdy"><rect x="0" y="80" width="648.15" height="172"/></clipPath><clipPath class="axesclip" id="clipe0facdxy"><rect x="37" y="80" width="475" height="172"/></clipPath></g><g class="gradients"/><g class="patterns"/></defs><g class="bglayer"/><g class="layer-below"><g class="imagelayer"/><g class="shapelayer"/></g><g class="cartesianlayer"><g class="subplot xy"><g class="layer-subplot"><g class="shapelayer"/><g class="imagelayer"/></g><g class="gridlayer"><g class="x"><path class="xgrid crisp" transform="translate(79.61,0)" d="M0,80v172" style="stroke: rgb(255, 255, 255); stroke-opacity: 1; stroke-width: 1px;"/><path class="xgrid crisp" transform="translate(156.06,0)" d="M0,80v172" style="stroke: rgb(255, 255, 255); stroke-opacity: 1; stroke-width: 1px;"/><path class="xgrid crisp" transform="translate(232.51,0)" d="M0,80v172" style="stroke: rgb(255, 255, 255); stroke-opacity: 1; stroke-width: 1px;"/><path class="xgrid crisp" transform="translate(310.22,0)" d="M0,80v172" style="stroke: rgb(255, 255, 255); stroke-opacity: 1; stroke-width: 1px;"/><path class="xgrid crisp" transform="translate(386.67,0)" d="M0,80v172" style="stroke: rgb(255, 255, 255); stroke-opacity: 1; stroke-width: 1px;"/><path class="xgrid crisp" transform="translate(463.12,0)" d="M0,80v172" style="stroke: rgb(255, 255, 255); stroke-opacity: 1; stroke-width: 1px;"/></g><g class="y"><path class="ygrid crisp" transform="translate(0,235.99)" d="M37,0h475" style="stroke: rgb(255, 255, 255); stroke-opacity: 1; stroke-width: 1px;"/><path class="ygrid crisp" transform="translate(0,198.67000000000002)" d="M37,0h475" style="stroke: rgb(255, 255, 255); stroke-opacity: 1; stroke-width: 1px;"/><path class="ygrid crisp" transform="translate(0,124.00999999999999)" d="M37,0h475" style="stroke: rgb(255, 255, 255); stroke-opacity: 1; stroke-width: 1px;"/><path class="ygrid crisp" transform="translate(0,86.68)" d="M37,0h475" style="stroke: rgb(255, 255, 255); stroke-opacity: 1; stroke-width: 1px;"/></g></g><g class="zerolinelayer"><path class="yzl zl crisp" transform="translate(0,161.34)" d="M37,0h475" style="stroke: rgb(255, 255, 255); stroke-opacity: 1; stroke-width: 2px;"/></g><path class="xlines-below"/><path class="ylines-below"/><g class="overlines-below"/><g class="xaxislayer-below"/><g class="yaxislayer-below"/><g class="overaxes-below"/><g class="plot" transform="translate(37,80)" clip-path="url(#clipe0facdxyplot)"><g class="scatterlayer mlayer"><g class="trace scatter traceec77f2" style="stroke-miterlimit: 2; opacity: 1;"><g class="fills"/><g class="errorbars"/><g class="lines"><path class="js-line" style="vector-effect: non-scaling-stroke; fill: none; stroke: rgb(153, 153, 255); stroke-opacity: 1; stroke-width: 1px; opacity: 1;" d="M0,81.07L2.51,104.53L3.76,97.64L5.01,84.57L6.27,79.28L7.52,98.07L8.77,105.24L12.53,74.05L13.79,78.51L15.04,69.55L16.29,66.93L17.55,71.28L18.8,59.79L20.05,56.49L21.31,66.19L22.56,72.86L23.81,70.78L25.07,71.63L26.32,89.63L27.57,103.48L28.83,102.9L30.08,103.05L31.33,96.44L32.59,94.21L33.84,80.15L35.09,66.65L36.35,63.74L37.6,67.97L38.85,79.98L40.11,76.31L41.36,76.27L42.61,79.98L43.87,80.24L46.37,106.34L47.63,106.11L48.88,104.67L50.13,88.88L53.89,38.15L55.15,38.94L56.4,47.38L57.65,45.75L58.91,46.89L60.16,36.54L61.41,24.18L62.66,29.27L63.92,31.73L65.17,29.08L66.42,32.32L67.68,30.35L68.93,30.73L70.18,43.56L72.69,72.85L73.94,77.16L75.2,64.94L76.45,66.14L78.96,91.24L80.21,88.34L81.46,88.88L82.72,73.82L83.97,62.29L85.22,75.68L86.48,79.45L87.73,60.74L88.98,62.3L90.24,77.72L91.49,79.11L92.74,68.92L95.25,64.78L96.5,53.04L97.76,57.09L99.01,67.53L100.26,62.17L101.52,49.13L104.02,31.79L105.28,24.25L106.53,17.48L107.78,15.58L110.29,26.71L111.54,28.21L112.8,33.97L114.05,44.43L117.81,90.77L119.06,83.67L120.32,67.88L121.57,68.6L125.33,119.58L126.58,128.99L127.84,145.38L129.09,133.52L130.34,115.35L131.6,113.72L132.85,114.39L134.1,119.15L135.36,118.49L136.61,104.07L141.62,60.61L142.88,73.91L144.13,78.59L145.38,65.75L146.64,61.76L147.89,72.29L149.14,75.2L150.4,71.99L152.9,90.37L154.16,94.23L155.41,91.26L156.66,95.76L160.42,133.9L161.68,135.95L162.93,131.28L164.18,131.93L165.44,143.41L166.69,139.46L167.94,139.34L169.2,152.43L170.45,161.57L171.7,163.4L175.46,125.85L176.72,120.82L179.22,136.56L180.47,135.44L181.73,132.59L182.98,138.28L184.23,136.81L185.49,121.18L186.74,102.28L187.99,100.5L190.5,109.76L191.75,119.12L193.01,121.37L194.26,117.65L196.77,117.77L198.02,108.65L199.27,105.67L200.53,113.06L203.03,129.99L204.29,148.52L205.54,152.39L206.79,143.75L209.3,92.29L210.55,92.11L213.06,82.29L214.31,88.42L215.57,80.51L216.82,66.74L218.07,67.12L219.33,70.1L220.58,76.45L221.83,76.04L223.09,62.16L224.34,62.39L229.35,90.09L230.61,92.61L231.86,93.67L233.11,103.99L234.37,105.93L235.62,102.65L239.38,84L240.63,84.16L243.14,104.46L244.39,98.8L245.65,93.83L246.9,92.02L248.15,91.34L249.41,98.74L250.66,101.69L251.91,102.09L255.67,115.9L256.93,106.01L258.18,98.06L259.43,98.35L260.69,96.23L261.94,80.01L263.19,67.49L264.45,71.98L265.7,71.59L266.95,64.41L268.21,68.79L269.46,66.22L270.71,58.75L271.97,59.71L275.73,103.2L276.98,103.56L280.74,63.66L281.99,60.42L283.25,59.85L284.5,54.4L287.01,37.77L288.26,42.72L289.51,48.82L290.77,69.33L292.02,70.48L293.27,59.27L294.53,58.53L295.78,67L298.28,76.52L299.54,94.7L300.79,110.25L302.04,110.11L305.8,69.37L307.06,81.32L308.31,86.32L309.56,87.53L312.07,109.17L313.32,112.27L315.83,135.81L317.08,126.19L318.34,110.94L319.59,116.02L320.84,119.38L322.1,117.64L323.35,134.63L324.6,131.8L325.86,126.79L327.11,132.58L328.36,129.42L329.62,114.46L330.87,98.95L332.12,98.65L334.63,84.47L335.88,106.54L337.14,121.51L338.39,114.8L340.9,77.46L342.15,72.14L343.4,79.31L344.66,95.59L347.16,119.13L348.42,120.44L350.92,79.59L352.18,83.62L354.68,92.99L355.94,95.57L357.19,88.66L358.44,74.83L359.7,71.45L360.95,85.22L363.46,100.34L364.71,108.87L367.22,97.9L368.47,104.6L369.72,102.24L370.98,97.28L372.23,97.47L373.48,92.14L377.24,50.49L378.5,36.86L379.75,16.46L381,8.6L383.51,11.25L384.76,13.1L386.02,15.22L387.27,21.31L388.52,23.08L389.78,31.08L391.03,39.89L392.28,42.51L394.79,60.67L396.04,67.81L397.3,70.74L398.55,52.5L399.8,40.55L401.06,45.48L402.31,39.26L403.56,38.77L404.82,49.71L406.07,53.02L407.32,39.48L408.58,39.38L409.83,57.67L411.08,60.36L412.34,53.71L413.59,40.6L414.84,47.01L416.09,72.96L417.35,80.86L418.6,73.19L419.85,74.52L421.11,86.93L422.36,81.29L423.61,83.14L424.87,90.79L426.12,77.52L427.37,75.17L428.63,76.76L431.13,64.82L432.39,53.67L434.89,34.36L436.15,47.25L437.4,53.87L438.65,53.55L439.91,51.39L441.16,39.06L442.41,34.02L443.67,37.34L444.92,37.28L446.17,38.15L447.43,40.58L448.68,40.85L449.93,43.26L451.19,40.91L453.69,38.71L454.95,50.69L456.2,61.46"/></g><g class="points"/><g class="text"/></g><g class="trace scatter trace5ff0e3" style="stroke-miterlimit: 2; opacity: 1;"><g class="fills"/><g class="errorbars"/><g class="lines"><path class="js-line" style="vector-effect: non-scaling-stroke; fill: none; stroke: rgb(0, 0, 128); stroke-opacity: 1; stroke-width: 1px; opacity: 1;" d="M319.59,105.59L320.84,121.69L322.1,113.63L323.35,117.56L324.6,144.27L325.86,116.01L327.11,131.71L329.62,125.68L330.87,101.44L332.12,95.04L333.38,100.07L334.63,81.83L335.88,86.42L337.14,121.56L338.39,117.53L339.64,109.13L340.9,82.77L342.15,73.15L343.4,72.1L348.42,123.83L349.67,113.65L350.92,83.85L352.18,75.99L353.43,89.99L354.68,88.69L355.94,95.55L357.19,94.16L359.7,68.2L360.95,75.18L362.2,93.53L363.46,88.54L364.71,108.73L365.96,106.28L367.22,96.89L368.47,97.12L369.72,108.8L370.98,94.46L372.23,98.14L373.48,95.28L374.74,88.31L375.99,64.65L378.5,47.29L379.75,32.03L381,9.14L382.26,15.12L383.51,11.5L384.76,17.77L386.02,15.59L387.27,21.25L388.52,27.13L389.78,25.15L391.03,41.06L392.28,42.82L393.54,45.95L394.79,63.82L396.04,59.88L397.3,75.97L398.55,67.16L399.8,42.48L401.06,42.76L402.31,51.27L403.56,32.83L404.82,48.01L406.07,54.2L407.32,54.68L408.58,30.25L409.83,51.33L411.08,65.42L412.34,57.93L413.59,52.66L414.84,34L417.35,83.61L418.6,78.45L419.85,69.34L421.11,79.64L422.36,92.68L423.61,71.33L424.87,93.19L426.12,87.74L427.37,68.95L428.63,81.12L431.13,68.63L432.39,63.05L434.89,36.94L436.15,36.61L437.4,59.76L438.65,51.36L439.91,58.09L441.16,48.41L442.41,34.96L443.67,37.73L444.92,41.21L446.17,38.06L447.43,42.35L448.68,42.93L449.93,42.91L451.19,47.21L452.44,39.29L453.69,44.52L454.95,37.72L456.2,64.89L457.45,60.34"/></g><g class="points"/><g class="text"/></g><g class="trace scatter trace91b7ce" style="stroke-miterlimit: 2; opacity: 1;"><g class="fills"/><g class="errorbars"/><g class="lines"><path class="js-line" style="vector-effect: non-scaling-stroke; fill: none; stroke: rgb(0, 255, 0); stroke-opacity: 1; stroke-width: 1px; opacity: 1;" d="M457.45,60.34L462.47,67.18L463.72,68.5L468.73,72.61L469.99,73.4L475,75.88"/></g><g class="points"/><g class="text"/></g></g></g><g class="overplot"/><path class="xlines-above crisp" style="fill: none;" d="M0,0"/><path class="ylines-above crisp" style="fill: none;" d="M0,0"/><g class="overlines-above"/><g class="xaxislayer-above"><g class="xtick"><text text-anchor="middle" x="0" y="265" style="font-family: serif; font-size: 12px; fill: rgb(42, 63, 95); fill-opacity: 1; white-space: pre; opacity: 1;" transform="translate(79.61,0)">Mar 2022</text></g><g class="xtick"><text text-anchor="middle" x="0" y="265" style="font-family: serif; font-size: 12px; fill: rgb(42, 63, 95); fill-opacity: 1; white-space: pre; opacity: 1;" transform="translate(156.06,0)">May 2022</text></g><g class="xtick"><text text-anchor="middle" x="0" y="265" style="font-family: serif; font-size: 12px; fill: rgb(42, 63, 95); fill-opacity: 1; white-space: pre; opacity: 1;" transform="translate(232.51,0)">Jul 2022</text></g><g class="xtick"><text text-anchor="middle" x="0" y="265" style="font-family: serif; font-size: 12px; fill: rgb(42, 63, 95); fill-opacity: 1; white-space: pre; opacity: 1;" transform="translate(310.22,0)">Sep 2022</text></g><g class="xtick"><text text-anchor="middle" x="0" y="265" style="font-family: serif; font-size: 12px; fill: rgb(42, 63, 95); fill-opacity: 1; white-space: pre; opacity: 1;" transform="translate(386.67,0)">Nov 2022</text></g><g class="xtick"><text text-anchor="middle" x="0" y="265" style="font-family: serif; font-size: 12px; fill: rgb(42, 63, 95); fill-opacity: 1; white-space: pre; opacity: 1;" transform="translate(463.12,0)">Jan 2023</text></g></g><g class="yaxislayer-above"><g class="ytick"><text text-anchor="end" x="36" y="4.199999999999999" style="font-family: serif; font-size: 12px; fill: rgb(42, 63, 95); fill-opacity: 1; white-space: pre; opacity: 1;" transform="translate(0,235.99)">−10</text></g><g class="ytick"><text text-anchor="end" x="36" y="4.199999999999999" style="font-family: serif; font-size: 12px; fill: rgb(42, 63, 95); fill-opacity: 1; white-space: pre; opacity: 1;" transform="translate(0,198.67000000000002)">−5</text></g><g class="ytick"><text text-anchor="end" x="36" y="4.199999999999999" style="font-family: serif; font-size: 12px; fill: rgb(42, 63, 95); fill-opacity: 1; white-space: pre; opacity: 1;" transform="translate(0,161.34)">0</text></g><g class="ytick"><text text-anchor="end" x="36" y="4.199999999999999" style="font-family: serif; font-size: 12px; fill: rgb(42, 63, 95); fill-opacity: 1; white-space: pre; opacity: 1;" transform="translate(0,124.00999999999999)">5</text></g><g class="ytick"><text text-anchor="end" x="36" y="4.199999999999999" style="font-family: serif; font-size: 12px; fill: rgb(42, 63, 95); fill-opacity: 1; white-space: pre; opacity: 1;" transform="translate(0,86.68)">10</text></g></g><g class="overaxes-above"/></g></g><g class="polarlayer"/><g class="ternarylayer"/><g class="geolayer"/><g class="funnelarealayer"/><g class="pielayer"/><g class="iciclelayer"/><g class="treemaplayer"/><g class="sunburstlayer"/><g class="glimages"/><defs id="topdefs-e0facd"><g class="clips"/><clipPath id="legende0facd"><rect width="116" height="67" x="0" y="0"/></clipPath></defs><g class="layer-above"><g class="imagelayer"/><g class="shapelayer"/></g><g class="infolayer"><g class="legend" pointer-events="all" transform="translate(521.5,80)"><rect class="bg" shape-rendering="crispEdges" style="stroke: rgb(68, 68, 68); stroke-opacity: 1; fill: rgb(238, 238, 238); fill-opacity: 1; stroke-width: 0px;" width="116" height="67" x="0" y="0"/><g class="scrollbox" transform="" clip-path="url(#legende0facd)"><g class="groups"><g class="traces" style="opacity: 1;" transform="translate(0,14.5)"><text class="legendtext" text-anchor="start" style="font-family: serif; font-size: 12px; fill: rgb(42, 63, 95); fill-opacity: 1; white-space: pre;" x="40" y="4.680000000000001">actual data</text><g class="layers" style="opacity: 1;"><g class="legendfill"/><g class="legendlines"><path class="js-line" d="M5,0h30" style="fill: none; stroke: rgb(153, 153, 255); stroke-opacity: 1; stroke-width: 1px;"/></g><g class="legendsymbols"><g class="legendpoints"/></g></g><rect class="legendtoggle" style="fill: rgb(0, 0, 0); fill-opacity: 0;" x="0" y="-9.5" width="110.5" height="19"/></g><g class="traces" style="opacity: 1;" transform="translate(0,33.5)"><text class="legendtext" text-anchor="start" style="font-family: serif; font-size: 12px; fill: rgb(42, 63, 95); fill-opacity: 1; white-space: pre;" x="40" y="4.680000000000001">predictions</text><g class="layers" style="opacity: 1;"><g class="legendfill"/><g class="legendlines"><path class="js-line" d="M5,0h30" style="fill: none; stroke: rgb(0, 0, 128); stroke-opacity: 1; stroke-width: 1px;"/></g><g class="legendsymbols"><g class="legendpoints"/></g></g><rect class="legendtoggle" style="fill: rgb(0, 0, 0); fill-opacity: 0;" x="0" y="-9.5" width="110.5" height="19"/></g><g class="traces" style="opacity: 1;" transform="translate(0,52.5)"><text class="legendtext" text-anchor="start" style="font-family: serif; font-size: 12px; fill: rgb(42, 63, 95); fill-opacity: 1; white-space: pre;" x="40" y="4.680000000000001">forecast</text><g class="layers" style="opacity: 1;"><g class="legendfill"/><g class="legendlines"><path class="js-line" d="M5,0h30" style="fill: none; stroke: rgb(0, 255, 0); stroke-opacity: 1; stroke-width: 1px;"/></g><g class="legendsymbols"><g class="legendpoints"/></g></g><rect class="legendtoggle" style="fill: rgb(0, 0, 0); fill-opacity: 0;" x="0" y="-9.5" width="110.5" height="19"/></g></g></g><rect class="scrollbar" rx="20" ry="3" width="0" height="0" style="fill: rgb(128, 139, 164); fill-opacity: 1;" x="0" y="0"/></g><g class="g-gtitle"><text class="gtitle" style="font-family: serif; font-size: 13px; fill: rgb(42, 63, 95); opacity: 1; font-weight: normal; white-space: pre;" x="32.4075" y="40" text-anchor="start" dy="0em">An ARIMA(1, 0, 1) model fitted on an ARMA(1, 1) sample</text></g><g class="g-xtitle"/><g class="g-ytitle"/></g></svg>