<svg class="main-svg" xmlns="http://www.w3.org/2000/svg" xmlns:xlink="http://www.w3.org/1999/xlink" width="660.828" height="384" style="" viewBox="0 0 660.828 384"><rect x="0" y="0" width="660.828" height="384" style="fill: rgb(238, 238, 238); fill-opacity: 1;"/><defs id="defs-81b8d3"><g class="clips"><clipPath id="clip81b8d3xyplot" class="plotclip"><rect width="456" height="204"/></clipPath><clipPath class="axesclip" id="clip81b8d3x"><rect x="80" y="0" width="456" height="384"/></clipPath><clipPath class="axesclip" id="clip81b8d3y"><rect x="0" y="100" width="660.828" height="204"/></clipPath><clipPath class="axesclip" id="clip81b8d3xy"><rect x="80" y="100" width="456" height="204"/></clipPath></g><g class="gradients"/><g class="patterns"/></defs><g class="bglayer"/><g class="layer-below"><g class="imagelayer"/><g class="shapelayer"/></g><g class="cartesianlayer"><g class="subplot xy"><g class="layer-subplot"><g class="shapelayer"/><g class="imagelayer"/></g><g class="gridlayer"><g class="x"><path class="xgrid crisp" transform="translate(93.23,0)" d="M0,100v204" style="stroke: rgb(255, 255, 255); stroke-opacity: 1; stroke-width: 1px;"/><path class="xgrid crisp" transform="translate(166.63,0)" d="M0,100v204" style="stroke: rgb(255, 255, 255); stroke-opacity: 1; stroke-width: 1px;"/><path class="xgrid crisp" transform="translate(237.61,0)" d="M0,100v204" style="stroke: rgb(255, 255, 255); stroke-opacity: 1; stroke-width: 1px;"/><path class="xgrid crisp" transform="translate(311.01,0)" d="M0,100v204" style="stroke: rgb(255, 255, 255); stroke-opacity: 1; stroke-width: 1px;"/><path class="xgrid crisp" transform="translate(384.4,0)" d="M0,100v204" style="stroke: rgb(255, 255, 255); stroke-opacity: 1; stroke-width: 1px;"/><path class="xgrid crisp" transform="translate(459,0)" d="M0,100v204" style="stroke: rgb(255, 255, 255); stroke-opacity: 1; stroke-width: 1px;"/><path class="xgrid crisp" transform="translate(532.39,0)" d="M0,100v204" style="stroke: rgb(255, 255, 255); stroke-opacity: 1; stroke-width: 1px;"/></g><g class="y"><path class="ygrid crisp" transform="translate(0,263.71000000000004)" d="M80,0h456" style="stroke: rgb(255, 255, 255); stroke-opacity: 1; stroke-width: 1px;"/><path class="ygrid crisp" transform="translate(0,169.26)" d="M80,0h456" style="stroke: rgb(255, 255, 255); stroke-opacity: 1; stroke-width: 1px;"/><path class="ygrid crisp" transform="translate(0,122.03)" d="M80,0h456" style="stroke: rgb(255, 255, 255); stroke-opacity: 1; stroke-width: 1px;"/></g></g><g class="zerolinelayer"><path class="yzl zl crisp" transform="translate(0,216.49)" d="M80,0h456" style="stroke: rgb(255, 255, 255); stroke-opacity: 1; stroke-width: 2px;"/></g><path class="xlines-below"/><path class="ylines-below"/><g class="overlines-below"/><g class="xaxislayer-below"/><g class="yaxislayer-below"/><g class="overaxes-below"/><g class="plot" transform="translate(80,100)" clip-path="url(#clip81b8d3xyplot)"><g class="scatterlayer mlayer"><g class="trace scatter trace8ac551" style="stroke-miterlimit: 2; opacity: 1;"><g class="fills"/><g class="errorbars"/><g class="lines"><path class="js-line" d="M0,116.94L1.2,115.51L2.41,126.96L3.61,130.49L4.81,114.31L6.02,114.15L7.22,115.43L8.42,119.31L9.63,136.25L10.83,141.15L12.03,127.16L13.23,121.7L14.44,128.75L16.84,138.23L18.05,129.02L19.25,127.16L20.45,150.53L21.66,165.1L22.86,147.37L25.27,120.25L26.47,124.08L27.67,132.11L28.88,145.56L30.08,164.34L31.28,169.88L32.49,163.93L33.69,146.88L34.89,135.05L36.09,105.37L37.3,92.75L38.5,103.52L40.91,153.51L42.11,146.05L43.31,151.02L44.52,160.62L45.72,152.3L46.92,132.51L49.33,109.94L50.53,104.88L51.74,112.37L52.94,125.75L55.35,167.79L56.55,161.32L57.75,144.7L58.96,142.21L60.16,146.93L61.36,163.73L62.56,171.14L63.77,172.44L64.97,159.35L66.17,129.5L67.38,110.93L68.58,113.13L69.78,120.64L70.99,103.07L73.39,61.28L74.6,54.97L77,65.48L78.21,77.14L81.82,110.01L83.02,121.8L84.22,110.92L85.42,112.96L86.63,128.03L87.83,110.64L90.24,78.07L91.44,69.42L92.64,73.1L93.85,94.58L95.05,104.51L96.25,108.16L97.46,121.57L98.66,126.11L99.86,127.32L101.07,142.73L102.27,149.13L103.47,148.77L104.68,159.08L105.88,162.29L108.28,142.53L109.49,126.54L111.89,103.27L113.1,84.26L116.71,15.25L117.91,11.3L121.52,37.79L122.72,36.88L123.93,41.32L125.13,53.1L126.33,61.56L127.54,60.57L128.74,54.89L129.94,57.96L131.15,63.04L132.35,62.86L133.55,62.76L134.75,48.73L137.16,26.63L138.36,32.41L139.57,31.82L140.77,23.28L143.18,10.2L144.38,11.78L149.19,72L150.4,88.5L151.6,94.81L152.8,96.74L154.01,88.4L155.21,85.62L157.61,135.02L158.82,138.56L160.02,132.13L161.22,114.06L162.43,105.41L163.63,123.13L164.83,137.33L166.04,138.13L167.24,127.94L168.44,134.71L169.65,132.48L170.85,110.12L172.05,102.91L173.26,110.54L174.46,110.72L175.66,116.23L176.87,131.7L178.07,134.37L181.68,74.97L182.88,80.8L185.29,106.54L186.49,132.55L188.9,173.67L190.1,177.99L191.3,173.28L192.51,161.05L193.71,147.32L194.91,156.04L196.12,175.87L197.32,177.86L199.73,147.61L200.93,150.21L202.13,145.77L203.34,134.48L204.54,127.68L205.74,138.13L206.94,146.94L208.15,126.41L209.35,107.3L210.55,103.12L211.76,99L212.96,82.98L214.16,90.77L215.37,92.06L216.57,79.11L217.77,86.05L218.98,89.7L220.18,79.26L221.38,75.1L222.59,94.79L223.79,101.89L224.99,93.22L226.2,100.77L227.4,113.39L228.6,116.93L229.8,111.57L232.21,94.55L233.41,102.34L234.62,112.05L235.82,93.91L238.23,57.1L239.43,60.95L240.63,70.74L241.84,73.64L244.24,99.48L245.45,102.74L246.65,100.44L247.85,103.07L249.06,101.3L250.26,88.25L251.46,85.85L252.66,100.52L253.87,118.64L255.07,122.16L257.48,143.23L258.68,159.46L259.88,175.78L261.09,179.12L262.29,189.78L263.49,180L264.7,160.05L265.9,173.31L267.1,179.92L268.31,159.52L271.92,109.71L273.12,105.29L274.32,95.68L275.53,96.04L276.73,97.68L277.93,88.48L280.34,124.79L281.54,127.47L282.74,124.57L283.95,124.59L285.15,128.97L286.35,127.36L287.56,123.8L288.76,126.13L289.96,120.35L291.17,95.61L293.57,55.33L294.78,61.34L295.98,59.22L297.18,61.37L298.39,60L299.59,53.6L300.79,47.37L301.99,50.16L303.2,55.07L304.4,68.5L306.81,119.74L308.01,122.93L310.42,153.59L311.62,156.14L312.82,150.06L314.03,137.82L315.23,130.21L316.43,151.39L317.64,165.44L318.84,161.98L322.45,132.23L323.65,132.31L324.85,134.73L326.06,142.27L328.46,107.75L329.67,118.73L330.87,125.47L332.07,108.68L333.28,100.8L334.48,116.99L335.68,136.79L336.89,140.38L338.09,137.56L339.29,126.33L340.5,110.23L341.7,111.33L342.9,108.41L344.11,111.55L345.31,118.78L346.51,104.06L347.72,93.17L348.92,105.51L351.32,111.7L352.53,121.71L354.93,95.37L356.14,90.98L357.34,87.12L358.54,72.75L359.75,57.35L360.95,76.19L362.15,69.46L363.36,57.94L364.56,82.68L365.76,84.36L366.97,73.83L368.17,83.97L371.78,164.84L372.98,169.18L375.39,144.7L376.59,125.87L377.79,122.88L379,122.83L380.2,116.21L381.4,104.94L382.61,94.71L383.81,94.44L385.01,97.95L386.22,114.89L387.42,111.72L388.62,69.6L389.83,56.04L391.03,64.34L392.23,61.58L393.44,75.22L397.04,156.69L398.25,163.24L399.45,173.31L400.65,169.4L403.06,182.1L404.26,172.09L406.67,192.83L407.87,193.8L411.48,165.48L412.69,171.55L413.89,171.38L415.09,158.31L416.3,151.26L417.5,131.1L418.7,111.72L419.91,115.74L421.11,123.01L422.31,115.56L423.51,108.5L424.72,112.97L425.92,118.39L427.12,132.47L428.33,145.29L429.53,127.24L430.73,94.47L431.94,84.07L434.34,129.55L435.55,137.44L437.95,165.1" style="vector-effect: non-scaling-stroke; fill: none; stroke: rgb(99, 110, 250); stroke-opacity: 1; stroke-width: 2px; opacity: 1;"/></g><g class="points"/><g class="text"/></g><g class="trace scatter trace09786b" style="stroke-miterlimit: 2; opacity: 1;"><g class="fills"/><g class="errorbars"/><g class="lines"><path class="js-line" d="M306.81,118.61L308.01,120.23L309.21,124.47L311.62,158.45L312.82,149.83L314.03,146.61L315.23,127.72L316.43,130.81L317.64,165.65L318.84,159.98L320.04,158.84L322.45,135.18L323.65,127.84L324.85,134.42L326.06,132.94L327.26,147.61L328.46,110.29L329.67,106.27L330.87,129.29L332.07,121.03L333.28,98.5L334.48,104.3L335.68,127.92L336.89,142.3L338.09,136.04L339.29,136.54L340.5,116.18L341.7,105.51L342.9,116.82L344.11,101.72L345.31,120.53L346.51,116.85L347.72,93.98L348.92,94.74L350.12,115.95L351.32,104.68L352.53,118.21L353.73,124.08L354.93,96.73L356.14,96.22L357.34,88.9L358.54,88.48L359.75,63.36L360.95,58.08L362.15,96.14L363.36,50.79L364.56,70.18L365.76,97.03L366.97,76.44L368.17,75.83L369.37,94.36L371.78,152.11L372.98,170.81L375.39,153.1L376.59,134.23L377.79,117.41L379,126.86L381.4,114.1L382.61,97.96L383.81,93.97L385.01,96.99L386.22,100.57L387.42,127.46L388.62,98.25L389.83,49.2L391.03,68.19L392.23,66.25L393.44,63.05L394.64,90.06L395.84,107.7L397.04,150.27L399.45,162.84L400.65,176.42L401.86,157.55L403.06,187.51L404.26,170.34L405.47,167.66L406.67,187.43L407.87,189.46L409.08,189.39L410.28,175.51L412.69,158.13L413.89,177.42L416.3,152.13L417.5,146.7L418.7,115.72L419.91,108.56L421.11,121.97L422.31,123.09L423.51,108.89L424.72,108.83L425.92,116.81L427.12,119.43L428.33,142.1L429.53,144.93L431.94,82.6L433.14,88.59L434.34,123.22L435.55,133.58L436.75,138.49L437.95,155.92L439.16,167.94" style="vector-effect: non-scaling-stroke; fill: none; stroke: rgb(239, 85, 59); stroke-opacity: 1; stroke-width: 2px; opacity: 1;"/></g><g class="points"/><g class="text"/></g><g class="trace scatter trace599378" style="stroke-miterlimit: 2; opacity: 1;"><g class="fills"/><g class="errorbars"/><g class="lines"><path class="js-line" d="M439.16,167.94L443.97,149.06L445.17,145.51L449.98,134.63L451.19,132.58L456,126.31" style="vector-effect: non-scaling-stroke; fill: none; stroke: rgb(0, 204, 150); stroke-opacity: 1; stroke-width: 2px; opacity: 1;"/></g><g class="points"/><g class="text"/></g></g></g><g class="overplot"/><path class="xlines-above crisp" d="M0,0" style="fill: none;"/><path class="ylines-above crisp" d="M0,0" style="fill: none;"/><g class="overlines-above"/><g class="xaxislayer-above"><g class="xtick"><text text-anchor="middle" x="0" y="317" transform="translate(93.23,0)" style="font-family: 'Open Sans', verdana, arial, sans-serif; font-size: 12px; fill: rgb(42, 63, 95); fill-opacity: 1; white-space: pre; opacity: 1;">Nov 2021</text></g><g class="xtick"><text text-anchor="middle" x="0" y="317" style="font-family: 'Open Sans', verdana, arial, sans-serif; font-size: 12px; fill: rgb(42, 63, 95); fill-opacity: 1; white-space: pre; opacity: 1;" transform="translate(166.63,0)">Jan 2022</text></g><g class="xtick"><text text-anchor="middle" x="0" y="317" style="font-family: 'Open Sans', verdana, arial, sans-serif; font-size: 12px; fill: rgb(42, 63, 95); fill-opacity: 1; white-space: pre; opacity: 1;" transform="translate(237.61,0)">Mar 2022</text></g><g class="xtick"><text text-anchor="middle" x="0" y="317" style="font-family: 'Open Sans', verdana, arial, sans-serif; font-size: 12px; fill: rgb(42, 63, 95); fill-opacity: 1; white-space: pre; opacity: 1;" transform="translate(311.01,0)">May 2022</text></g><g class="xtick"><text text-anchor="middle" x="0" y="317" style="font-family: 'Open Sans', verdana, arial, sans-serif; font-size: 12px; fill: rgb(42, 63, 95); fill-opacity: 1; white-space: pre; opacity: 1;" transform="translate(384.4,0)">Jul 2022</text></g><g class="xtick"><text text-anchor="middle" x="0" y="317" style="font-family: 'Open Sans', verdana, arial, sans-serif; font-size: 12px; fill: rgb(42, 63, 95); fill-opacity: 1; white-space: pre; opacity: 1;" transform="translate(459,0)">Sep 2022</text></g><g class="xtick"><text text-anchor="middle" x="0" y="317" style="font-family: 'Open Sans', verdana, arial, sans-serif; font-size: 12px; fill: rgb(42, 63, 95); fill-opacity: 1; white-space: pre; opacity: 1;" transform="translate(532.39,0)">Nov 2022</text></g></g><g class="yaxislayer-above"><g class="ytick"><text text-anchor="end" x="79" y="4.199999999999999" transform="translate(0,263.71000000000004)" style="font-family: 'Open Sans', verdana, arial, sans-serif; font-size: 12px; fill: rgb(42, 63, 95); fill-opacity: 1; white-space: pre; opacity: 1;">−5</text></g><g class="ytick"><text text-anchor="end" x="79" y="4.199999999999999" style="font-family: 'Open Sans', verdana, arial, sans-serif; font-size: 12px; fill: rgb(42, 63, 95); fill-opacity: 1; white-space: pre; opacity: 1;" transform="translate(0,216.49)">0</text></g><g class="ytick"><text text-anchor="end" x="79" y="4.199999999999999" style="font-family: 'Open Sans', verdana, arial, sans-serif; font-size: 12px; fill: rgb(42, 63, 95); fill-opacity: 1; white-space: pre; opacity: 1;" transform="translate(0,169.26)">5</text></g><g class="ytick"><text text-anchor="end" x="79" y="4.199999999999999" style="font-family: 'Open Sans', verdana, arial, sans-serif; font-size: 12px; fill: rgb(42, 63, 95); fill-opacity: 1; white-space: pre; opacity: 1;" transform="translate(0,122.03)">10</text></g></g><g class="overaxes-above"/></g></g><g class="polarlayer"/><g class="ternarylayer"/><g class="geolayer"/><g class="funnelarealayer"/><g class="pielayer"/><g class="iciclelayer"/><g class="treemaplayer"/><g class="sunburstlayer"/><g class="glimages"/><defs id="topdefs-81b8d3"><g class="clips"/><clipPath id="legend81b8d3"><rect width="104" height="67" x="0" y="0"/></clipPath></defs><g class="layer-above"><g class="imagelayer"/><g class="shapelayer"/></g><g class="infolayer"><g class="legend" pointer-events="all" transform="translate(545.12,100)"><rect class="bg" shape-rendering="crispEdges" width="104" height="67" x="0" y="0" style="stroke: rgb(68, 68, 68); stroke-opacity: 1; fill: rgb(238, 238, 238); fill-opacity: 1; stroke-width: 0px;"/><g class="scrollbox" transform="" clip-path="url(#legend81b8d3)"><g class="groups"><g class="traces" transform="translate(0,14.5)" style="opacity: 1;"><text class="legendtext" text-anchor="start" x="40" y="4.680000000000001" style="font-family: 'Open Sans', verdana, arial, sans-serif; font-size: 12px; fill: rgb(42, 63, 95); fill-opacity: 1; white-space: pre;">actual data</text><g class="layers" style="opacity: 1;"><g class="legendfill"/><g class="legendlines"><path class="js-line" d="M5,0h30" style="fill: none; stroke: rgb(99, 110, 250); stroke-opacity: 1; stroke-width: 2px;"/></g><g class="legendsymbols"><g class="legendpoints"/></g></g><rect class="legendtoggle" x="0" y="-9.5" width="98.71875" height="19" style="fill: rgb(0, 0, 0); fill-opacity: 0;"/></g><g class="traces" transform="translate(0,33.5)" style="opacity: 1;"><text class="legendtext" text-anchor="start" x="40" y="4.680000000000001" style="font-family: 'Open Sans', verdana, arial, sans-serif; font-size: 12px; fill: rgb(42, 63, 95); fill-opacity: 1; white-space: pre;">predictions</text><g class="layers" style="opacity: 1;"><g class="legendfill"/><g class="legendlines"><path class="js-line" d="M5,0h30" style="fill: none; stroke: rgb(239, 85, 59); stroke-opacity: 1; stroke-width: 2px;"/></g><g class="legendsymbols"><g class="legendpoints"/></g></g><rect class="legendtoggle" x="0" y="-9.5" width="98.71875" height="19" style="fill: rgb(0, 0, 0); fill-opacity: 0;"/></g><g class="traces" transform="translate(0,52.5)" style="opacity: 1;"><text class="legendtext" text-anchor="start" x="40" y="4.680000000000001" style="font-family: 'Open Sans', verdana, arial, sans-serif; font-size: 12px; fill: rgb(42, 63, 95); fill-opacity: 1; white-space: pre;">forecast</text><g class="layers" style="opacity: 1;"><g class="legendfill"/><g class="legendlines"><path class="js-line" d="M5,0h30" style="fill: none; stroke: rgb(0, 204, 150); stroke-opacity: 1; stroke-width: 2px;"/></g><g class="legendsymbols"><g class="legendpoints"/></g></g><rect class="legendtoggle" x="0" y="-9.5" width="98.71875" height="19" style="fill: rgb(0, 0, 0); fill-opacity: 0;"/></g></g></g><rect class="scrollbar" rx="20" ry="3" width="0" height="0" x="0" y="0" style="fill: rgb(128, 139, 164); fill-opacity: 1;"/></g><g class="g-gtitle"><text class="gtitle" x="33.0414" y="50" text-anchor="start" dy="0em" style="font-family: 'Open Sans', verdana, arial, sans-serif; font-size: 17px; fill: rgb(42, 63, 95); opacity: 1; font-weight: normal; white-space: pre;">An ARIMA(1, 0, 1) model fitted on an ARMA(1, 1) sample</text></g><g class="g-xtitle"/><g class="g-ytitle"/></g></svg>